<svg width="27" height="27" viewBox="0 0 27 27" fill="none" xmlns="http://www.w3.org/2000/svg">
<g clip-path="url(#clip0_135_986)">
<path d="M6.06391 16.6712L5.15888 20.0497L1.85104 20.1197C0.862484 18.2862 0.301758 16.1883 0.301758 13.959C0.301758 11.8033 0.826024 9.77046 1.75532 7.98047H1.75603L4.70094 8.52037L5.99098 11.4476C5.72098 12.2348 5.57382 13.0798 5.57382 13.959C5.57392 14.9133 5.74678 15.8276 6.06391 16.6712Z" fill="#FBBB00"/>
<path d="M26.0745 11.5312C26.2238 12.3176 26.3016 13.1298 26.3016 13.9598C26.3016 14.8905 26.2038 15.7984 26.0173 16.6741C25.3845 19.6541 23.7309 22.2563 21.4402 24.0977L21.4395 24.097L17.7302 23.9077L17.2053 20.6305C18.7252 19.7391 19.9131 18.3441 20.5388 16.6741H13.5874V11.5312H20.6403H26.0745Z" fill="#518EF8"/>
<path d="M21.4396 24.0969L21.4403 24.0976C19.2125 25.8883 16.3825 26.9597 13.3018 26.9597C8.35107 26.9597 4.0468 24.1926 1.85107 20.1204L6.06394 16.6719C7.16178 19.6019 9.98821 21.6876 13.3018 21.6876C14.7261 21.6876 16.0604 21.3026 17.2053 20.6304L21.4396 24.0969Z" fill="#28B446"/>
<path d="M21.5997 3.95183L17.3882 7.39967C16.2032 6.65898 14.8025 6.23109 13.3018 6.23109C9.91323 6.23109 7.03393 8.4125 5.99109 11.4475L1.75608 7.98041H1.75537C3.91896 3.80898 8.27751 0.958984 13.3018 0.958984C16.4561 0.958984 19.3482 2.08257 21.5997 3.95183Z" fill="#F14336"/>
</g>
<defs>
<clipPath id="clip0_135_986">
<rect width="26" height="26" fill="white" transform="translate(0.301758 0.958984)"/>
</clipPath>
</defs>
</svg>
